<svg width="841pt" height="230pt"  id="Calque_1" data-name="Calque 1" xmlns="http://www.w3.org/2000/svg" xmlns:xlink="http://www.w3.org/1999/xlink" viewBox="0 0 841.89 230.63"><defs><style>.cls-1{fill:url(#linear-gradient);}.cls-2{fill:#fff;}.cls-3{fill:#1d1d1b;}</style><linearGradient id="linear-gradient" x1="762.7" y1="914.78" x2="668.25" y2="1019.92" gradientTransform="translate(863.1 1081.04) rotate(180)" gradientUnits="userSpaceOnUse"><stop offset="0" stop-color="#e72b70"/><stop offset="1" stop-color="#f8ac00"/></linearGradient></defs><circle class="cls-1" cx="146.22" cy="115.25" r="85.65"/><path class="cls-2" d="M208.91,100.2a3.16,3.16,0,0,0-3.16,3.16v11.08a17.74,17.74,0,1,1-35.47,0V74.06a24.06,24.06,0,0,0-48.12,0v40.38a17.74,17.74,0,1,1-35.47,0V82.61a3.16,3.16,0,1,0-6.32,0v31.83a24.05,24.05,0,0,0,48,1.8,2.93,2.93,0,0,0,.08-.67V74.06a17.73,17.73,0,1,1,35.46,0v41.51a2.93,2.93,0,0,0,.08.67,24.05,24.05,0,0,0,48-1.8V103.36A3.17,3.17,0,0,0,208.91,100.2Z"/><path class="cls-2" d="M174.89,148.26A14.33,14.33,0,0,1,160.58,134V110.09a3.16,3.16,0,0,0-6.32,0V134a20.65,20.65,0,0,0,20.63,20.63,3.16,3.16,0,1,0,0-6.32Z"/><path class="cls-2" d="M135.41,106.93a3.15,3.15,0,0,0-3.16,3.16v35.44a14.32,14.32,0,0,1-14.31,14.3,3.16,3.16,0,0,0,0,6.32,20.65,20.65,0,0,0,20.63-20.62V110.09A3.16,3.16,0,0,0,135.41,106.93Z"/><path class="cls-2" d="M163.48,174.17a14.32,14.32,0,0,1-14.31-14.3V107.78a3.16,3.16,0,1,0-6.32,0v52.09a20.65,20.65,0,0,0,20.63,20.63,3.17,3.17,0,0,0,0-6.33Z"/><path class="cls-2" d="M147.31,82a2.3,2.3,0,0,1,1.82.93,3.16,3.16,0,0,0-6.31.23v8a3.18,3.18,0,0,0,6.35,0V85.63a2.27,2.27,0,0,1-1.86,1,2.32,2.32,0,0,1,0-4.64Z"/><path class="cls-2" d="M158,82a2.28,2.28,0,0,1,1.81.93,3.16,3.16,0,0,0-6.31.23v6a3.18,3.18,0,0,0,6.36,0V85.63a2.28,2.28,0,0,1-1.86,1A2.32,2.32,0,1,1,158,82Z"/><path class="cls-3" d="M347,130.26c8.89,0,16.52-5.34,16.52-14.85A16.65,16.65,0,0,0,347,98.78a16.83,16.83,0,0,0-16.63,16.73V133.6A16.52,16.52,0,0,0,347,150.13,18.27,18.27,0,0,0,359,145.56a4.35,4.35,0,0,0-.28-6.78,4.46,4.46,0,0,0-5.5.35,10.24,10.24,0,0,1-6.27,2.53,8.15,8.15,0,0,1-8.16-8.06v-3.34Zm-8.16-14.64a8.25,8.25,0,0,1,8.16-8.26,8.12,8.12,0,0,1,8.05,8,8.23,8.23,0,0,1-8.05,8.26h-8.16Z"/><path class="cls-3" d="M392.54,99a9.66,9.66,0,0,0-8.05,4.92V82.62a4.24,4.24,0,0,0-8.47,0v67.09h6.38l1.67-5.23a9.33,9.33,0,0,0,8.68,5.86c11.4,0,16.63-6.59,16.63-15.27v-20C409.38,106.62,401.85,98.26,392.54,99Zm8.37,36.08c0,4.18-3.77,6.9-8.37,6.9s-8.05-3.76-8.05-7.42V114.68c.11-4.19,2.83-7.22,8.05-7.22,4.5,0,8.37,3.35,8.37,7.64Z"/><path class="cls-3" d="M497.78,130.68a4.18,4.18,0,0,0-4.13,3.14c-1.49,6.8-7.67,11-13.18,5.24a10.31,10.31,0,0,1-2.79-7.14V115.41a8.23,8.23,0,0,1,8.26-8c3.54,0,6.61,3.06,7.66,7.55a4.27,4.27,0,0,0,4.09,3.43h.08a4.2,4.2,0,0,0,4.05-5.22c-2-8.36-8.55-14.34-15.88-14.34a16.69,16.69,0,0,0-16.73,16.63V133.6a16.89,16.89,0,0,0,16.73,16.63c7.75,0,14-6.16,15.9-14.37A4.19,4.19,0,0,0,497.78,130.68Z"/><path class="cls-3" d="M529,98.89a18.29,18.29,0,0,0-9.27,3,4.13,4.13,0,0,0-1.13,5.76h0a4.13,4.13,0,0,0,5.52,1.36,10,10,0,0,1,4.88-1.6,8.14,8.14,0,0,1,8.15,8.05l.21,4.4c-1.15-3.35-5.23-5.55-8.57-5.55a16.08,16.08,0,0,0-16.32,16.32v2.92A16.88,16.88,0,0,0,529,150.34c2.61,0,7.94-1.57,9-6l.84,5.33h6.79v-34.2A16.79,16.79,0,0,0,529,98.89Zm8.15,36c0,3.76-4.18,7-8.15,7A8.24,8.24,0,0,1,521,133.6v-2.92a8.06,8.06,0,0,1,8.06-8.06c4.49,0,8.15,2.93,8.15,7.12Z"/><path class="cls-3" d="M575,98.47a9.34,9.34,0,0,0-8.68,5.85l-1.67-5.22h-6.38v67.08a4.24,4.24,0,0,0,8.47,0V145.53c1.88,3.45,5.23,4.07,8.05,4.28,9.31.74,16.84-7.63,16.84-16.1v-20C591.67,105.06,586.44,98.47,575,98.47Zm8.16,35.24c0,4.29-3.87,7.63-8.37,7.63-5.22,0-7.94-3-8.05-7.21V114.26c0-3.66,3.56-7.43,8.05-7.43s8.37,2.72,8.37,6.91Z"/><path class="cls-3" d="M621,98.47a9.34,9.34,0,0,0-8.68,5.85L610.6,99.1h-6.38v67.08a4.24,4.24,0,0,0,8.47,0V145.53c1.88,3.45,5.23,4.07,8,4.28,9.31.74,16.84-7.63,16.84-16.1v-20C637.58,105.06,632.35,98.47,621,98.47Zm8.16,35.24c0,4.29-3.87,7.63-8.37,7.63-5.22,0-7.94-3-8-7.21V114.26c0-3.66,3.56-7.43,8-7.43s8.37,2.72,8.37,6.91Z"/><path class="cls-3" d="M666.76,130.26c8.89,0,16.52-5.34,16.52-14.85a16.65,16.65,0,0,0-16.52-16.63,16.83,16.83,0,0,0-16.63,16.73V133.6a16.52,16.52,0,0,0,16.63,16.53,18.26,18.26,0,0,0,12-4.57,4.35,4.35,0,0,0-.28-6.78,4.45,4.45,0,0,0-5.49.35,10.28,10.28,0,0,1-6.28,2.53,8.15,8.15,0,0,1-8.16-8.06v-3.34Zm-8.16-14.64a8.25,8.25,0,0,1,8.16-8.26,8.12,8.12,0,0,1,8,8,8.23,8.23,0,0,1-8,8.26H658.6Z"/><path class="cls-3" d="M711.46,140.92c-4.3-1.11-7.26-4.29-7.26-8.15V83a4.19,4.19,0,0,0-8.37,0v49.78c0,8.26,5.72,14.5,13.84,16.36a4.23,4.23,0,0,0,5.2-4.09h0A4.33,4.33,0,0,0,711.46,140.92Z"/><path class="cls-3" d="M738.44,140.92c-4.3-1.11-7.26-4.29-7.26-8.15V83a4.18,4.18,0,1,0-8.36,0v49.78c0,8.26,5.71,14.5,13.83,16.36a4.23,4.23,0,0,0,5.2-4.09A4.33,4.33,0,0,0,738.44,140.92Z"/><path class="cls-3" d="M764.44,98.89a18.32,18.32,0,0,0-9.27,3,4.19,4.19,0,0,0,4.39,7.12,10,10,0,0,1,4.88-1.6,8.14,8.14,0,0,1,8.15,8.05l.21,4.4c-1.15-3.35-5.22-5.55-8.57-5.55a16.07,16.07,0,0,0-16.31,16.32v2.92a16.87,16.87,0,0,0,16.52,16.74c2.61,0,7.94-1.57,9-6l.84,5.33h6.8v-34.2A16.8,16.8,0,0,0,764.44,98.89Zm8.15,36c0,3.76-4.18,7-8.15,7a8.24,8.24,0,0,1-8.05-8.27v-2.92a8.06,8.06,0,0,1,8.05-8.06c4.49,0,8.15,2.93,8.15,7.12Z"/><path class="cls-3" d="M315.61,78.48a4.14,4.14,0,0,0-4.15,4.14v47.29c0,6.28-4.31,11.39-9.61,11.39s-9.62-5.11-9.62-11.39v-38a4.15,4.15,0,0,0-8.3,0v38c0,6.28-4.31,11.39-9.61,11.39s-9.61-5.11-9.61-11.39V82.62a4.15,4.15,0,0,0-8.3,0v47.29c0,10.86,8,19.69,17.91,19.69a17.29,17.29,0,0,0,13.76-7.11,17.31,17.31,0,0,0,13.77,7.11c9.87,0,17.91-8.83,17.91-19.69V82.62A4.14,4.14,0,0,0,315.61,78.48Z"/><path class="cls-3" d="M440.6,79.21c-9.87,0-17.91,8.83-17.91,19.69v47.29a4.15,4.15,0,0,0,8.3,0V129.83h19.23v16a4.15,4.15,0,1,0,8.29,0V98.9C458.51,88,450.48,79.21,440.6,79.21ZM431,121.54V98.9c0-6.28,4.31-11.39,9.61-11.39s9.62,5.11,9.62,11.39v22.64Z"/></svg>